<?xml version="1.0" encoding="utf-8"?>
<!-- Generator: Adobe Illustrator 22.1.0, SVG Export Plug-In . SVG Version: 6.00 Build 0)  -->
<svg version="1.1" id="Layer_1" xmlns="http://www.w3.org/2000/svg" xmlns:xlink="http://www.w3.org/1999/xlink" x="0px" y="0px"
	 viewBox="0 0 32 32" style="enable-background:new 0 0 32 32;" xml:space="preserve">
<title>unreal-engine</title>
<path d="M16,0C7.2,0,0.1,7.2,0.1,16S7.2,32,16,32c8.8,0,15.9-7.2,15.9-16S24.8,0,16,0L16,0z M16,0.7c4,0,7.9,1.6,10.7,4.5
	c2.9,2.9,4.5,6.8,4.4,10.8c0,4.1-1.6,7.9-4.4,10.8c-2.8,2.9-6.7,4.5-10.7,4.5c-4,0-7.9-1.6-10.7-4.5C2.4,23.9,0.8,20.1,0.8,16
	c0-4.1,1.6-7.9,4.4-10.8C8.1,2.3,12,0.7,16,0.7z M15.2,6.3c-2.6,0.7-5,2-8.2,5.7s-2.6,6.7-2.6,6.7s0.9-2.1,3-4.3
	c1-1,1.8-1.4,2.3-1.4c0.5,0,0.8,0.3,0.8,0.8v7.4c0,0.7-0.5,0.9-0.9,0.9c-0.4,0-0.7-0.1-0.7-0.1c2.2,3.2,7.4,3.6,7.4,3.6l2.3-2.4
	l0.1,0l2.1,1.8c3.8-2.3,5.7-6.5,5.7-6.5c-1.7,1.8-2.8,2.2-3.4,2.2c-0.6,0-0.8-0.3-0.8-0.3c0-0.2-0.1-2.4-0.1-4.7
	c0-2.3,0-4.7,0.1-4.7c0.7-1.2,2.8-3.7,2.8-3.7c-3.9,0.8-6.1,3.4-6.1,3.4c-0.6-0.5-1.9-0.4-1.9-0.4c0.6,0.3,1.2,1.3,1.2,2.1v7.9
	c0,0-1.3,1.2-2.3,1.2c-0.6,0-1-0.3-1.2-0.6c-0.1-0.1-0.1-0.2-0.2-0.3v-9.8c-0.1,0.1-0.3,0.2-0.5,0.2c-0.2,0-0.4-0.1-0.6-0.4
	c-0.1-0.2-0.2-0.6-0.2-1.1C13.2,7.5,15.2,6.3,15.2,6.3L15.2,6.3z"/>
</svg>
