{
	"asset":{
		"generator":"Khronos glTF Blender I/O v4.0.44",
		"version":"2.0"
	},
	"extensionsUsed":[
		"KHR_texture_transform"
	],
	"extensionsRequired":[
		"KHR_texture_transform"
	],
	"scene":0,
	"scenes":[
		{
			"name":"Scene",
			"nodes":[
				0,
				1,
				2,
				3,
				4,
				5,
				6,
				7
			]
		}
	],
	"nodes":[
		{
			"mesh":0,
			"name":"Background",
			"scale":[
				281.8702392578125,
				7.72038459777832,
				112.25460052490234
			],
			"translation":[
				8.75133991241455,
				7.025417327880859,
				-1.0380702018737793
			]
		},
		{
			"mesh":1,
			"name":"Table",
			"scale":[
				5.217745780944824,
				0.15676367282867432,
				2.606428384780884
			],
			"translation":[
				8.430512428283691,
				2.2657084465026855,
				-0.00861681904643774
			]
		},
		{
			"mesh":2,
			"name":"Chair3",
			"rotation":[
				-0.00018442609871271998,
				-0.002254909835755825,
				0.08151667565107346,
				0.9966694116592407
			],
			"scale":[
				4.294259548187256,
				4.2942585945129395,
				4.294259071350098
			],
			"translation":[
				7.786375045776367,
				-0.6804522275924683,
				-5.2768425941467285
			]
		},
		{
			"mesh":3,
			"name":"Chair2",
			"rotation":[
				-0.00018442609871271998,
				-0.002254909835755825,
				0.08151667565107346,
				0.9966694116592407
			],
			"scale":[
				4.294259548187256,
				4.2942585945129395,
				4.294259071350098
			],
			"translation":[
				11.553874015808105,
				-0.6804522275924683,
				-5.2768425941467285
			]
		},
		{
			"mesh":4,
			"name":"Chair6",
			"rotation":[
				0.08151475340127945,
				0.996645987033844,
				0.0005883743287995458,
				0.007193811237812042
			],
			"scale":[
				4.294259548187256,
				4.2942585945129395,
				4.294259071350098
			],
			"translation":[
				9.374140739440918,
				-0.6804522275924683,
				5.086073875427246
			]
		},
		{
			"mesh":5,
			"name":"Chair5",
			"rotation":[
				0.08151475340127945,
				0.996645987033844,
				0.0005883743287995458,
				0.007193811237812042
			],
			"scale":[
				4.294259548187256,
				4.2942585945129395,
				4.294259071350098
			],
			"translation":[
				5.606827259063721,
				-0.6804522275924683,
				5.048735618591309
			]
		},
		{
			"mesh":6,
			"name":"Chair4",
			"rotation":[
				0.0576985739171505,
				0.7054556608200073,
				0.05758367106318474,
				0.7040507197380066
			],
			"scale":[
				4.294259548187256,
				4.2942585945129395,
				4.294259071350098
			],
			"translation":[
				2.3142929077148438,
				-0.6804522275924683,
				-1.1344428062438965
			]
		},
		{
			"mesh":7,
			"name":"Chair1",
			"rotation":[
				-0.05790657177567482,
				-0.7079988121986389,
				0.0573744960129261,
				0.7014932036399841
			],
			"scale":[
				4.294259548187256,
				4.2942585945129395,
				4.294259071350098
			],
			"translation":[
				14.626300811767578,
				-0.6804522275924683,
				1.0564563274383545
			]
		}
	],
	"materials":[
		{
			"doubleSided":true,
			"name":"Material.002",
			"pbrMetallicRoughness":{
				"baseColorFactor":[
					0.03009614534676075,
					0.04291515424847603,
					0.11482290178537369,
					1
				],
				"metallicFactor":0,
				"roughnessFactor":0.5
			}
		},
		{
			"doubleSided":true,
			"name":"Wood Black UA",
			"normalTexture":{
				"extensions":{
					"KHR_texture_transform":{
						"offset":[
							-0.999999999999999,
							1.00000004371139
						],
						"rotation":1.5707963705062866,
						"scale":[
							10,
							1
						]
					}
				},
				"index":0,
				"texCoord":1
			},
			"pbrMetallicRoughness":{
				"baseColorTexture":{
					"extensions":{
						"KHR_texture_transform":{
							"offset":[
								-0.999999999999999,
								1.00000004371139
							],
							"rotation":1.5707963705062866,
							"scale":[
								10,
								1
							]
						}
					},
					"index":1,
					"texCoord":1
				},
				"metallicFactor":0,
				"metallicRoughnessTexture":{
					"extensions":{
						"KHR_texture_transform":{
							"offset":[
								-0.999999999999999,
								1.00000004371139
							],
							"rotation":1.5707963705062866,
							"scale":[
								10,
								1
							]
						}
					},
					"index":2,
					"texCoord":1
				}
			}
		},
		{
			"doubleSided":true,
			"name":"Wood",
			"normalTexture":{
				"index":3,
				"texCoord":1
			},
			"pbrMetallicRoughness":{
				"baseColorTexture":{
					"index":4,
					"texCoord":1
				},
				"metallicFactor":0,
				"metallicRoughnessTexture":{
					"index":5,
					"texCoord":1
				}
			}
		}
	],
	"meshes":[
		{
			"name":"Cube.021",
			"primitives":[
				{
					"attributes":{
						"POSITION":0,
						"NORMAL":1,
						"TEXCOORD_0":2,
						"TEXCOORD_1":3
					},
					"indices":4,
					"material":0
				}
			]
		},
		{
			"name":"Cube.002",
			"primitives":[
				{
					"attributes":{
						"POSITION":5,
						"NORMAL":6,
						"TEXCOORD_0":7,
						"TEXCOORD_1":8
					},
					"indices":9,
					"material":1
				}
			]
		},
		{
			"name":"Cube.020",
			"primitives":[
				{
					"attributes":{
						"POSITION":10,
						"NORMAL":11,
						"TEXCOORD_0":12,
						"TEXCOORD_1":13
					},
					"indices":14,
					"material":2
				}
			]
		},
		{
			"name":"Cube.003",
			"primitives":[
				{
					"attributes":{
						"POSITION":15,
						"NORMAL":16,
						"TEXCOORD_0":17,
						"TEXCOORD_1":18
					},
					"indices":19,
					"material":2
				}
			]
		},
		{
			"name":"Cube.024",
			"primitives":[
				{
					"attributes":{
						"POSITION":20,
						"NORMAL":21,
						"TEXCOORD_0":22,
						"TEXCOORD_1":23
					},
					"indices":24,
					"material":2
				}
			]
		},
		{
			"name":"Cube.025",
			"primitives":[
				{
					"attributes":{
						"POSITION":25,
						"NORMAL":26,
						"TEXCOORD_0":27,
						"TEXCOORD_1":28
					},
					"indices":29,
					"material":2
				}
			]
		},
		{
			"name":"Cube.027",
			"primitives":[
				{
					"attributes":{
						"POSITION":30,
						"NORMAL":31,
						"TEXCOORD_0":32,
						"TEXCOORD_1":33
					},
					"indices":34,
					"material":2
				}
			]
		},
		{
			"name":"Cube.029",
			"primitives":[
				{
					"attributes":{
						"POSITION":35,
						"NORMAL":36,
						"TEXCOORD_0":37,
						"TEXCOORD_1":38
					},
					"indices":39,
					"material":2
				}
			]
		}
	],
	"textures":[
		{
			"sampler":0,
			"source":0
		},
		{
			"sampler":0,
			"source":1
		},
		{
			"sampler":0,
			"source":2
		},
		{
			"sampler":0,
			"source":3
		},
		{
			"sampler":0,
			"source":4
		},
		{
			"sampler":0,
			"source":5
		}
	],
	"images":[
		{
			"mimeType":"image/jpeg",
			"name":"Wood063_2K_Normal",
			"uri":"Textures/Wood063_2K_Normal.jpg"
		},
		{
			"mimeType":"image/jpeg",
			"name":"Wood063_2K_Color",
			"uri":"Textures/Wood063_2K_Color.jpg"
		},
		{
			"mimeType":"image/png",
			"name":"Wood063_2K_Roughness",
			"uri":"Textures/Wood063_2K_Roughness.png"
		},
		{
			"mimeType":"image/jpeg",
			"name":"Wood053_2K_Normal",
			"uri":"Textures/Wood053_2K_Normal.jpg"
		},
		{
			"mimeType":"image/jpeg",
			"name":"Wood053_2K_Color",
			"uri":"Textures/Wood053_2K_Color.jpg"
		},
		{
			"mimeType":"image/png",
			"name":"Wood053_2K_Roughness",
			"uri":"Textures/Wood053_2K_Roughness.png"
		}
	],
	"accessors":[
		{
			"bufferView":0,
			"componentType":5126,
			"count":30,
			"max":[
				1,
				34.423465728759766,
				1
			],
			"min":[
				-1,
				-1,
				-1
			],
			"type":"VEC3"
		},
		{
			"bufferView":1,
			"componentType":5126,
			"count":30,
			"type":"VEC3"
		},
		{
			"bufferView":2,
			"componentType":5126,
			"count":30,
			"type":"VEC2"
		},
		{
			"bufferView":3,
			"componentType":5126,
			"count":30,
			"type":"VEC2"
		},
		{
			"bufferView":4,
			"componentType":5123,
			"count":60,
			"type":"SCALAR"
		},
		{
			"bufferView":5,
			"componentType":5126,
			"count":1594,
			"max":[
				1.000000238418579,
				1,
				1
			],
			"min":[
				-0.9999997615814209,
				-18.860118865966797,
				-1
			],
			"type":"VEC3"
		},
		{
			"bufferView":6,
			"componentType":5126,
			"count":1594,
			"type":"VEC3"
		},
		{
			"bufferView":7,
			"componentType":5126,
			"count":1594,
			"type":"VEC2"
		},
		{
			"bufferView":8,
			"componentType":5126,
			"count":1594,
			"type":"VEC2"
		},
		{
			"bufferView":9,
			"componentType":5123,
			"count":3018,
			"type":"SCALAR"
		},
		{
			"bufferView":10,
			"componentType":5126,
			"count":206667,
			"max":[
				0.08561815321445465,
				0.8429277539253235,
				0.24433213472366333
			],
			"min":[
				-0.5015560984611511,
				0.0001448849798180163,
				-0.2471226453781128
			],
			"type":"VEC3"
		},
		{
			"bufferView":11,
			"componentType":5126,
			"count":206667,
			"type":"VEC3"
		},
		{
			"bufferView":12,
			"componentType":5126,
			"count":206667,
			"type":"VEC2"
		},
		{
			"bufferView":13,
			"componentType":5126,
			"count":206667,
			"type":"VEC2"
		},
		{
			"bufferView":14,
			"componentType":5125,
			"count":1161798,
			"type":"SCALAR"
		},
		{
			"bufferView":15,
			"componentType":5126,
			"count":206653,
			"max":[
				0.0856175571680069,
				0.8429274559020996,
				0.24433082342147827
			],
			"min":[
				-0.5015565752983093,
				0.00014470616588369012,
				-0.24712371826171875
			],
			"type":"VEC3"
		},
		{
			"bufferView":16,
			"componentType":5126,
			"count":206653,
			"type":"VEC3"
		},
		{
			"bufferView":17,
			"componentType":5126,
			"count":206653,
			"type":"VEC2"
		},
		{
			"bufferView":18,
			"componentType":5126,
			"count":206653,
			"type":"VEC2"
		},
		{
			"bufferView":19,
			"componentType":5125,
			"count":1161765,
			"type":"SCALAR"
		},
		{
			"bufferView":20,
			"componentType":5126,
			"count":206603,
			"max":[
				0.08561737835407257,
				0.8429274559020996,
				0.24433153867721558
			],
			"min":[
				-0.5015568733215332,
				0.00014452709001488984,
				-0.247123122215271
			],
			"type":"VEC3"
		},
		{
			"bufferView":21,
			"componentType":5126,
			"count":206603,
			"type":"VEC3"
		},
		{
			"bufferView":22,
			"componentType":5126,
			"count":206603,
			"type":"VEC2"
		},
		{
			"bufferView":23,
			"componentType":5126,
			"count":206603,
			"type":"VEC2"
		},
		{
			"bufferView":24,
			"componentType":5125,
			"count":1161750,
			"type":"SCALAR"
		},
		{
			"bufferView":25,
			"componentType":5126,
			"count":206638,
			"max":[
				0.08561809360980988,
				0.8429274559020996,
				0.24433141946792603
			],
			"min":[
				-0.5015566349029541,
				0.00014452709001488984,
				-0.2471233606338501
			],
			"type":"VEC3"
		},
		{
			"bufferView":26,
			"componentType":5126,
			"count":206638,
			"type":"VEC3"
		},
		{
			"bufferView":27,
			"componentType":5126,
			"count":206638,
			"type":"VEC2"
		},
		{
			"bufferView":28,
			"componentType":5126,
			"count":206638,
			"type":"VEC2"
		},
		{
			"bufferView":29,
			"componentType":5125,
			"count":1161762,
			"type":"SCALAR"
		},
		{
			"bufferView":30,
			"componentType":5126,
			"count":206640,
			"max":[
				0.08561858534812927,
				0.8429271578788757,
				0.24433216452598572
			],
			"min":[
				-0.5015558004379272,
				0.0001445720554329455,
				-0.24712255597114563
			],
			"type":"VEC3"
		},
		{
			"bufferView":31,
			"componentType":5126,
			"count":206640,
			"type":"VEC3"
		},
		{
			"bufferView":32,
			"componentType":5126,
			"count":206640,
			"type":"VEC2"
		},
		{
			"bufferView":33,
			"componentType":5126,
			"count":206640,
			"type":"VEC2"
		},
		{
			"bufferView":34,
			"componentType":5125,
			"count":1161726,
			"type":"SCALAR"
		},
		{
			"bufferView":35,
			"componentType":5126,
			"count":206640,
			"max":[
				0.08561880886554718,
				0.8429271578788757,
				0.244334876537323
			],
			"min":[
				-0.5015552043914795,
				0.0001446168462280184,
				-0.24712026119232178
			],
			"type":"VEC3"
		},
		{
			"bufferView":36,
			"componentType":5126,
			"count":206640,
			"type":"VEC3"
		},
		{
			"bufferView":37,
			"componentType":5126,
			"count":206640,
			"type":"VEC2"
		},
		{
			"bufferView":38,
			"componentType":5126,
			"count":206640,
			"type":"VEC2"
		},
		{
			"bufferView":39,
			"componentType":5125,
			"count":1161738,
			"type":"SCALAR"
		}
	],
	"bufferViews":[
		{
			"buffer":0,
			"byteLength":360,
			"byteOffset":0,
			"target":34962
		},
		{
			"buffer":0,
			"byteLength":360,
			"byteOffset":360,
			"target":34962
		},
		{
			"buffer":0,
			"byteLength":240,
			"byteOffset":720,
			"target":34962
		},
		{
			"buffer":0,
			"byteLength":240,
			"byteOffset":960,
			"target":34962
		},
		{
			"buffer":0,
			"byteLength":120,
			"byteOffset":1200,
			"target":34963
		},
		{
			"buffer":0,
			"byteLength":19128,
			"byteOffset":1320,
			"target":34962
		},
		{
			"buffer":0,
			"byteLength":19128,
			"byteOffset":20448,
			"target":34962
		},
		{
			"buffer":0,
			"byteLength":12752,
			"byteOffset":39576,
			"target":34962
		},
		{
			"buffer":0,
			"byteLength":12752,
			"byteOffset":52328,
			"target":34962
		},
		{
			"buffer":0,
			"byteLength":6036,
			"byteOffset":65080,
			"target":34963
		},
		{
			"buffer":0,
			"byteLength":2480004,
			"byteOffset":71116,
			"target":34962
		},
		{
			"buffer":0,
			"byteLength":2480004,
			"byteOffset":2551120,
			"target":34962
		},
		{
			"buffer":0,
			"byteLength":1653336,
			"byteOffset":5031124,
			"target":34962
		},
		{
			"buffer":0,
			"byteLength":1653336,
			"byteOffset":6684460,
			"target":34962
		},
		{
			"buffer":0,
			"byteLength":4647192,
			"byteOffset":8337796,
			"target":34963
		},
		{
			"buffer":0,
			"byteLength":2479836,
			"byteOffset":12984988,
			"target":34962
		},
		{
			"buffer":0,
			"byteLength":2479836,
			"byteOffset":15464824,
			"target":34962
		},
		{
			"buffer":0,
			"byteLength":1653224,
			"byteOffset":17944660,
			"target":34962
		},
		{
			"buffer":0,
			"byteLength":1653224,
			"byteOffset":19597884,
			"target":34962
		},
		{
			"buffer":0,
			"byteLength":4647060,
			"byteOffset":21251108,
			"target":34963
		},
		{
			"buffer":0,
			"byteLength":2479236,
			"byteOffset":25898168,
			"target":34962
		},
		{
			"buffer":0,
			"byteLength":2479236,
			"byteOffset":28377404,
			"target":34962
		},
		{
			"buffer":0,
			"byteLength":1652824,
			"byteOffset":30856640,
			"target":34962
		},
		{
			"buffer":0,
			"byteLength":1652824,
			"byteOffset":32509464,
			"target":34962
		},
		{
			"buffer":0,
			"byteLength":4647000,
			"byteOffset":34162288,
			"target":34963
		},
		{
			"buffer":0,
			"byteLength":2479656,
			"byteOffset":38809288,
			"target":34962
		},
		{
			"buffer":0,
			"byteLength":2479656,
			"byteOffset":41288944,
			"target":34962
		},
		{
			"buffer":0,
			"byteLength":1653104,
			"byteOffset":43768600,
			"target":34962
		},
		{
			"buffer":0,
			"byteLength":1653104,
			"byteOffset":45421704,
			"target":34962
		},
		{
			"buffer":0,
			"byteLength":4647048,
			"byteOffset":47074808,
			"target":34963
		},
		{
			"buffer":0,
			"byteLength":2479680,
			"byteOffset":51721856,
			"target":34962
		},
		{
			"buffer":0,
			"byteLength":2479680,
			"byteOffset":54201536,
			"target":34962
		},
		{
			"buffer":0,
			"byteLength":1653120,
			"byteOffset":56681216,
			"target":34962
		},
		{
			"buffer":0,
			"byteLength":1653120,
			"byteOffset":58334336,
			"target":34962
		},
		{
			"buffer":0,
			"byteLength":4646904,
			"byteOffset":59987456,
			"target":34963
		},
		{
			"buffer":0,
			"byteLength":2479680,
			"byteOffset":64634360,
			"target":34962
		},
		{
			"buffer":0,
			"byteLength":2479680,
			"byteOffset":67114040,
			"target":34962
		},
		{
			"buffer":0,
			"byteLength":1653120,
			"byteOffset":69593720,
			"target":34962
		},
		{
			"buffer":0,
			"byteLength":1653120,
			"byteOffset":71246840,
			"target":34962
		},
		{
			"buffer":0,
			"byteLength":4646952,
			"byteOffset":72899960,
			"target":34963
		}
	],
	"samplers":[
		{
			"magFilter":9729,
			"minFilter":9987
		}
	],
	"buffers":[
		{
			"byteLength":77546912,
			"uri":"LAB1.bin"
		}
	]
}
